inDegrees=no
DataType=double
version=3
OpenSimVersion=4.4-2022-10-11-798caa840
endheader
time	elv_angle	shoulder_elv	shoulder_rot	elbow_flexion	pro_sup	deviation	flexion
0	0.8552113334772214	1.204277183876087	0.4188790204786391	0.7853981633974483	0	0	0
0.004170286707211121	0.8552113334772214	1.204277183876087	0.4188790204786391	0.7860805249642575	0	0	0
0.008340573414422242	0.8552113334772214	1.204277183876087	0.4188790204786391	0.7867628865310669	0	0	0
0.01251086012163336	0.8552113334772214	1.204277183876087	0.4188790204786391	0.7874452480978761	0	0	0
0.01668114682884448	0.8552113334772214	1.204277183876087	0.4188790204786391	0.7881276096646853	0	0	0
0.02085143353605561	0.8552113334772214	1.204277183876087	0.4188790204786391	0.7888099712314945	0	0	0
0.02502172024326672	0.8552113334772214	1.204277183876087	0.4188790204786391	0.7894923327983038	0	0	0
0.02919200695047785	0.8552113334772214	1.204277183876087	0.4188790204786391	0.7901746943651131	0	0	0
0.03336229365768897	0.8552113334772214	1.204277183876087	0.4188790204786391	0.7908570559319223	0	0	0
0.03753258036490009	0.8552113334772214	1.204277183876087	0.4188790204786391	0.7915394174987316	0	0	0
0.04170286707211121	0.8552113334772214	1.204277183876087	0.4188790204786391	0.7922217790655408	0	0	0
0.04587315377932233	0.8552113334772214	1.204277183876087	0.4188790204786391	0.79290414063235	0	0	0
0.05004344048653345	0.8552113334772214	1.204277183876087	0.4188790204786391	0.7935865021991594	0	0	0
0.05421372719374457	0.8552113334772214	1.204277183876087	0.4188790204786391	0.7942688637659686	0	0	0
0.05838401390095569	0.8552113334772214	1.204277183876087	0.4188790204786391	0.7949512253327778	0	0	0
0.06255430060816682	0.8552113334772214	1.204277183876087	0.4188790204786391	0.7956335868995871	0	0	0
0.06672458731537793	0.8552113334772214	1.204277183876087	0.4188790204786391	0.7963159484663964	0	0	0
0.07089487402258905	0.8552113334772214	1.204277183876087	0.4188790204786391	0.7969983100332056	0	0	0
0.07506516072980017	0.8552113334772214	1.204277183876087	0.4188790204786391	0.7976806716000149	0	0	0
0.0792354474370113	0.8552113334772214	1.204277183876087	0.4188790204786391	0.7983630331668241	0	0	0
0.08340573414422242	0.8552113334772214	1.204277183876087	0.4188790204786391	0.7990453947336333	0	0	0
0.08757602085143354	0.8552113334772214	1.204277183876087	0.4188790204786391	0.7997277563004427	0	0	0
0.09174630755864466	0.8552113334772214	1.204277183876087	0.4188790204786391	0.8004101178672519	0	0	0
0.09591659426585578	0.8552113334772214	1.204277183876087	0.4188790204786391	0.801092479434061	0	0	0
0.1000868809730669	0.8552113334772214	1.204277183876087	0.4188790204786391	0.8017748410008703	0	0	0
0.104257167680278	0.8552113334772214	1.204277183876087	0.4188790204786391	0.8024572025676795	0	0	0
0.1084274543874891	0.8552113334772214	1.204277183876087	0.4188790204786391	0.8031395641344887	0	0	0
0.1125977410947003	0.8552113334772214	1.204277183876087	0.4188790204786391	0.8038219257012981	0	0	0
0.1167680278019114	0.8552113334772214	1.204277183876087	0.4188790204786391	0.8045042872681073	0	0	0
0.1209383145091225	0.8552113334772214	1.204277183876087	0.4188790204786391	0.8051866488349165	0	0	0
0.1251086012163336	0.8552113334772214	1.204277183876087	0.4188790204786391	0.8058690104017258	0	0	0
0.1292788879235447	0.8552113334772214	1.204277183876087	0.4188790204786391	0.8065513719685351	0	0	0
0.1334491746307559	0.8552113334772214	1.204277183876087	0.4188790204786391	0.8072337335353443	0	0	0
0.137619461337967	0.8552113334772214	1.204277183876087	0.4188790204786391	0.8079160951021536	0	0	0
0.1417897480451781	0.8552113334772214	1.204277183876087	0.4188790204786391	0.8085984566689628	0	0	0
0.1459600347523892	0.8552113334772214	1.204277183876087	0.4188790204786391	0.809280818235772	0	0	0
0.1501303214596003	0.8552113334772214	1.204277183876087	0.4188790204786391	0.8099631798025814	0	0	0
0.1543006081668115	0.8552113334772214	1.204277183876087	0.4188790204786391	0.8106455413693906	0	0	0
0.1584708948740226	0.8552113334772214	1.204277183876087	0.4188790204786391	0.8113279029361998	0	0	0
0.1626411815812337	0.8552113334772214	1.204277183876087	0.4188790204786391	0.8120102645030091	0	0	0
0.1668114682884448	0.8552113334772214	1.204277183876087	0.4188790204786391	0.8126926260698183	0	0	0
0.170981754995656	0.8552113334772214	1.204277183876087	0.4188790204786391	0.8133749876366276	0	0	0
0.1751520417028671	0.8552113334772214	1.204277183876087	0.4188790204786391	0.8140573492034369	0	0	0
0.1793223284100782	0.8552113334772214	1.204277183876087	0.4188790204786391	0.8147397107702461	0	0	0
0.1834926151172893	0.8552113334772214	1.204277183876087	0.4188790204786391	0.8154220723370553	0	0	0
0.1876629018245004	0.8552113334772214	1.204277183876087	0.4188790204786391	0.8161044339038646	0	0	0
0.1918331885317116	0.8552113334772214	1.204277183876087	0.4188790204786391	0.8167867954706739	0	0	0
0.1960034752389227	0.8552113334772214	1.204277183876087	0.4188790204786391	0.8174691570374831	0	0	0
0.2001737619461338	0.8552113334772214	1.204277183876087	0.4188790204786391	0.8181515186042924	0	0	0
0.2043440486533449	0.8552113334772214	1.204277183876087	0.4188790204786391	0.8188338801711016	0	0	0
0.2085143353605561	0.8552113334772214	1.204277183876087	0.4188790204786391	0.8195162417379109	0	0	0
0.2126846220677672	0.8552113334772214	1.204277183876087	0.4188790204786391	0.8201986033047202	0	0	0
0.2168549087749783	0.8552113334772214	1.204277183876087	0.4188790204786391	0.8208809648715294	0	0	0
0.2210251954821894	0.8552113334772214	1.204277183876087	0.4188790204786391	0.8215633264383386	0	0	0
0.2251954821894005	0.8552113334772214	1.204277183876087	0.4188790204786391	0.8222456880051479	0	0	0
0.2293657688966116	0.8552113334772214	1.204277183876087	0.4188790204786391	0.8229280495719572	0	0	0
0.2335360556038228	0.8552113334772214	1.204277183876087	0.4188790204786391	0.8236104111387664	0	0	0
0.2377063423110339	0.8552113334772214	1.204277183876087	0.4188790204786391	0.8242927727055757	0	0	0
0.241876629018245	0.8552113334772214	1.204277183876087	0.4188790204786391	0.8249751342723849	0	0	0
0.2460469157254561	0.8552113334772214	1.204277183876087	0.4188790204786391	0.8256574958391941	0	0	0
0.2502172024326673	0.8552113334772214	1.204277183876087	0.4188790204786391	0.8263398574060035	0	0	0
0.2543874891398784	0.8552113334772214	1.204277183876087	0.4188790204786391	0.8270222189728127	0	0	0
0.2585577758470895	0.8552113334772214	1.204277183876087	0.4188790204786391	0.8277045805396219	0	0	0
0.2627280625543006	0.8552113334772214	1.204277183876087	0.4188790204786391	0.8283869421064312	0	0	0
0.2668983492615117	0.8552113334772214	1.204277183876087	0.4188790204786391	0.8290693036732404	0	0	0
0.2710686359687229	0.8552113334772214	1.204277183876087	0.4188790204786391	0.8297516652400497	0	0	0
0.275238922675934	0.8552113334772214	1.204277183876087	0.4188790204786391	0.8304340268068588	0	0	0
0.2794092093831451	0.8552113334772214	1.204277183876087	0.4188790204786391	0.8311163883736681	0	0	0
0.2835794960903562	0.8552113334772214	1.204277183876087	0.4188790204786391	0.8317987499404773	0	0	0
0.2877497827975674	0.8552113334772214	1.204277183876087	0.4188790204786391	0.8324811115072865	0	0	0
0.2919200695047784	0.8552113334772214	1.204277183876087	0.4188790204786391	0.8331634730740959	0	0	0
0.2960903562119896	0.8552113334772214	1.204277183876087	0.4188790204786391	0.8338458346409051	0	0	0
0.3002606429192007	0.8552113334772214	1.204277183876087	0.4188790204786391	0.8345281962077143	0	0	0
0.3044309296264118	0.8552113334772214	1.204277183876087	0.4188790204786391	0.8352105577745236	0	0	0
0.3086012163336229	0.8552113334772214	1.204277183876087	0.4188790204786391	0.8358929193413328	0	0	0
0.3127715030408341	0.8552113334772214	1.204277183876087	0.4188790204786391	0.8365752809081421	0	0	0
0.3169417897480452	0.8552113334772214	1.204277183876087	0.4188790204786391	0.8372576424749514	0	0	0
0.3211120764552563	0.8552113334772214	1.204277183876087	0.4188790204786391	0.8379400040417606	0	0	0
0.3252823631624674	0.8552113334772214	1.204277183876087	0.4188790204786391	0.8386223656085698	0	0	0
0.3294526498696785	0.8552113334772214	1.204277183876087	0.4188790204786391	0.8393047271753791	0	0	0
0.3336229365768897	0.8552113334772214	1.204277183876087	0.4188790204786391	0.8399870887421884	0	0	0
0.3377932232841008	0.8552113334772214	1.204277183876087	0.4188790204786391	0.8406694503089976	0	0	0
0.3419635099913119	0.8552113334772214	1.204277183876087	0.4188790204786391	0.8413518118758069	0	0	0
0.346133796698523	0.8552113334772214	1.204277183876087	0.4188790204786391	0.8420341734426161	0	0	0
0.3503040834057342	0.8552113334772214	1.204277183876087	0.4188790204786391	0.8427165350094254	0	0	0
0.3544743701129452	0.8552113334772214	1.204277183876087	0.4188790204786391	0.8433988965762347	0	0	0
0.3586446568201564	0.8552113334772214	1.204277183876087	0.4188790204786391	0.8440812581430439	0	0	0
0.3628149435273675	0.8552113334772214	1.204277183876087	0.4188790204786391	0.8447636197098531	0	0	0
0.3669852302345786	0.8552113334772214	1.204277183876087	0.4188790204786391	0.8454459812766624	0	0	0
0.3711555169417898	0.8552113334772214	1.204277183876087	0.4188790204786391	0.8461283428434717	0	0	0
